IKResults
version=1
nRows=16
nColumns=40
inDegrees=yes

Units are S.I. units (second, meters, Newtons, ...)
Angles are in degrees.

endheader
time	pelvis_tilt	pelvis_list	pelvis_rotation	pelvis_tx	pelvis_ty	pelvis_tz	hip_flexion_r	hip_adduction_r	hip_rotation_r	knee_angle_r	knee_angle_r_beta	ankle_angle_r	subtalar_angle_r	mtp_angle_r	hip_flexion_l	hip_adduction_l	hip_rotation_l	knee_angle_l	knee_angle_l_beta	ankle_angle_l	subtalar_angle_l	mtp_angle_l	lumbar_extension	lumbar_bending	lumbar_rotation	arm_flex_r	arm_add_r	arm_rot_r	elbow_flex_r	pro_sup_r	wrist_flex_r	wrist_dev_r	arm_flex_l	arm_add_l	arm_rot_l	elbow_flex_l	pro_sup_l	wrist_flex_l	wrist_dev_l
      0.37000000	     -0.92787829	      0.86991747	      1.07718613	     -0.22588981	      0.92371960	      1.46811335	     -0.74494706	      1.34497079	     -8.99873379	    -15.77748992	     -0.27536915	     14.28431985	    -11.66046403	      4.20844851	     18.99965020	      0.99195299	      9.03582148	    -19.78507946	     -0.34531478	      9.77770933	     13.72284114	      6.87095758	     -2.44701763	     -0.90145264	      1.49172910	     -2.84152260	    -10.89590248	      3.46276467	     28.94914475	     89.95437384	      0.00000000	      0.00000000	     -5.48561452	      8.58225574	     10.04256762	     14.60536810	     89.95437384	      0.00000000	      0.00000000
      0.38000000	     -1.08332985	      1.05275323	      1.12830048	     -0.22027392	      0.92291646	      1.46776410	     -0.85168525	      1.13613482	     -8.84229884	    -15.99882273	     -0.27923213	     14.60766502	    -11.73255722	      4.17702662	     19.56104563	      0.75057026	      9.50105676	    -18.58609459	     -0.32438855	      9.27959820	     12.86685544	      6.28203272	     -2.30947790	     -1.15577227	      1.51011079	     -2.79272834	    -10.84358763	      3.34212931	     29.22954820	     89.95437384	      0.00000000	      0.00000000	     -5.75685080	      8.55480264	      9.77632588	     14.68904329	     89.95437384	      0.00000000	      0.00000000
      0.39000000	     -1.19504440	      1.03474909	      1.28921193	     -0.21462183	      0.92206800	      1.46731729	     -1.05793136	      1.14817967	     -8.91206802	    -16.16698525	     -0.28216712	     14.76005918	    -11.73558540	      4.12298052	     20.32417098	      0.72987267	      9.98409626	    -17.92707483	     -0.31288648	      9.14437586	     12.58267412	      6.11775391	     -2.24038242	     -1.18590721	      1.36237779	     -2.68614391	    -10.82584560	      3.31139948	     29.44544864	     89.95437384	      0.00000000	      0.00000000	     -5.97526003	      8.47073687	      9.64246028	     14.67213984	     89.95437384	      0.00000000	      0.00000000
      0.40000000	     -0.96911763	      1.52982584	      0.81721565	     -0.20813766	      0.92182591	      1.46762874	     -1.64104282	      0.58019562	     -8.40558504	    -16.35895024	     -0.28551754	     15.16175866	    -11.81041646	      3.95315413	     20.12589450	      0.47248722	     11.84384435	    -16.39841888	     -0.28620640	      7.97446195	     10.42364214	      3.23180267	     -2.46312451	     -1.81140497	      1.94469172	     -2.71531285	    -10.71745010	      3.11516429	     29.67868741	     89.95437384	      0.00000000	      0.00000000	     -6.30808102	      8.58649295	      8.69570903	     14.93558576	     89.95437384	      0.00000000	      0.00000000
      0.41000000	     -1.16107578	      1.49825907	      0.98401672	     -0.20248280	      0.92081344	      1.46704655	     -1.78089609	      0.60670224	     -8.40008134	    -16.47190668	     -0.28748901	     15.39437365	    -11.81426892	      3.88702735	     20.87096483	      0.40862580	     12.12440390	    -15.72163666	     -0.27439432	      7.96093709	     10.02395044	      2.96994799	     -2.31526454	     -1.82278655	      1.81679281	     -2.66028455	    -10.69257493	      3.11823159	     29.89841838	     89.95437384	      0.00000000	      0.00000000	     -6.47538748	      8.48741784	      8.64698971	     14.91602899	     89.95437384	      0.00000000	      0.00000000
      0.42000000	     -1.03724178	      1.77324687	      0.69492221	     -0.19612721	      0.92030064	      1.46701210	     -2.33843449	      0.32459311	     -7.81999798	    -16.49687381	     -0.28792476	     15.58973765	    -12.07194077	      3.84551871	     20.98622641	      0.31743495	     13.77243680	    -14.75006597	     -0.25743722	      7.28871886	      8.28413325	      0.12965754	     -2.44543831	     -2.19872822	      2.15207140	     -2.63312499	    -10.67242823	      3.11667717	     30.12576317	     89.95437384	      0.00000000	      0.00000000	     -6.66385602	      8.44799407	      8.52514047	     15.02526010	     89.95437384	      0.00000000	      0.00000000
      0.43000000	     -1.22909125	      1.84081192	      0.69154672	     -0.19045271	      0.91920251	      1.46649325	     -2.42081982	      0.20801670	     -7.73053657	    -16.69786977	     -0.29143281	     15.89725542	    -12.07873774	      3.77353386	     21.62846712	      0.17842079	     14.05897013	    -14.13437060	     -0.24669130	      7.18529104	      7.97664487	     -0.13492101	     -2.32450593	     -2.32528353	      2.13927849	     -2.54462369	    -10.66118627	      3.14484735	     30.31432343	     89.95437384	      0.00000000	      0.00000000	     -6.81082973	      8.34611250	      8.51666879	     15.06141573	     89.95437384	      0.00000000	      0.00000000
      0.44000000	     -1.33897144	      1.76346756	      0.74938289	     -0.18442521	      0.91823469	      1.46615469	     -2.65264801	      0.25806136	     -7.82616662	    -16.85554974	     -0.29418484	     15.99963719	    -12.02934064	      3.72408777	     22.21712781	      0.23011144	     14.46074088	    -13.77708923	     -0.24045557	      7.15837549	      7.95443542	     -0.14581984	     -2.23731216	     -2.31890117	      2.08810854	     -2.49004334	    -10.59450989	      3.16727797	     30.44221599	     89.95437384	      0.00000000	      0.00000000	     -6.93662000	      8.24934240	      8.47893450	     15.04995902	     89.95437384	      0.00000000	      0.00000000
      0.45000000	     -1.46205329	      2.05617703	      0.40611894	     -0.17837842	      0.91728475	      1.46595136	     -2.77927688	     -0.10532597	     -7.25318693	    -17.14379750	     -0.29921571	     16.41028794	    -12.06936005	      3.62604468	     22.46509996	     -0.05557824	     15.14642670	    -12.91077440	     -0.22533552	      6.88554584	      7.64646165	     -0.41976103	     -2.13122060	     -2.71067690	      2.44449578	     -2.46337091	    -10.55948565	      3.23311542	     30.60570966	     89.95437384	      0.00000000	      0.00000000	     -7.08406656	      8.17150351	      8.55076179	     15.17944601	     89.95437384	      0.00000000	      0.00000000
      0.46000000	     -1.52016764	      2.03751542	      0.30349926	     -0.17228642	      0.91638049	      1.46558373	     -3.02635134	     -0.15093022	     -7.24484308	    -17.34224063	     -0.30267920	     16.51132102	    -12.04736981	      3.57276314	     22.84968656	     -0.01710317	     15.59859435	    -12.59253591	     -0.21978121	      6.92698752	      7.62620234	     -0.47123750	     -2.11904502	     -2.76554776	      2.52072031	     -2.38381135	    -10.53242147	      3.29261192	     30.66456006	     89.95437384	      0.00000000	      0.00000000	     -7.13509098	      8.05196276	      8.52044456	     15.15819695	     89.95437384	      0.00000000	      0.00000000
      0.47000000	     -1.61101728	      1.97761555	      0.21230602	     -0.16613720	      0.91537321	      1.46521182	     -3.23989487	     -0.14244501	     -7.19988808	    -17.54628579	     -0.30624046	     16.58525744	    -11.96371683	      3.51156161	     23.23586974	      0.05089942	     15.98320224	    -12.29053666	     -0.21451033	      7.01957388	      7.60889030	     -0.48688766	     -2.05508070	     -2.77543402	      2.55971054	     -2.34533703	    -10.47980742	      3.31551463	     30.81435780	     89.95437384	      0.00000000	      0.00000000	     -7.25010067	      7.95102288	      8.49059570	     15.22669110	     89.95437384	      0.00000000	      0.00000000
      0.48000000	     -1.70851684	      1.91725395	      0.12637622	     -0.15989348	      0.91433902	      1.46471100	     -3.44491562	     -0.13800786	     -7.14994848	    -17.77674738	     -0.31026277	     16.66006627	    -11.87746838	      3.44766531	     23.58192526	      0.10119022	     16.30208906	    -12.06249386	     -0.21053023	      7.10389289	      7.59812711	     -0.47640357	     -1.97152576	     -2.77164274	      2.59366133	     -2.30908735	    -10.44616061	      3.35829226	     30.92945997	     89.95437384	      0.00000000	      0.00000000	     -7.36243616	      7.84168879	      8.45815972	     15.27236767	     89.95437384	      0.00000000	      0.00000000
      0.49000000	     -1.53902090	      2.19353789	     -0.59521391	     -0.15323265	      0.91375471	      1.46462750	     -3.84406406	     -0.55437415	     -6.28502358	    -18.17043627	     -0.31713394	     16.95573282	    -12.08070209	      3.32528005	     23.20171900	     -0.04303654	     17.25219082	    -11.28113603	     -0.19689297	      7.26385259	      7.74459312	     -0.59749124	     -2.14907934	     -3.11635776	      3.26695024	     -2.32299493	    -10.49616050	      3.55882184	     31.08540220	     89.95437384	      0.00000000	      0.00000000	     -7.40392275	      7.69870484	      8.50284986	     15.34645640	     89.95437384	      0.00000000	      0.00000000
      0.50000000	     -1.64067232	      2.07424545	     -0.63308964	     -0.14675867	      0.91273364	      1.46397372	     -4.05575743	     -0.50181685	     -6.37255331	    -18.39918546	     -0.32112637	     16.91430939	    -11.95676867	      3.27069880	     23.49981309	      0.05965200	     17.47583016	    -11.22462428	     -0.19590665	      7.23047085	      7.74906867	     -0.56878734	     -2.03943315	     -3.05474415	      3.23315682	     -2.33079549	    -10.44424539	      3.56520158	     31.16571150	     89.95437384	      0.00000000	      0.00000000	     -7.51200248	      7.59413658	      8.45421383	     15.43309743	     89.95437384	      0.00000000	      0.00000000
      0.51000000	     -1.74881543	      1.97103299	     -0.69249782	     -0.14001895	      0.91168643	      1.46335273	     -4.25231909	     -0.47638636	     -6.41419660	    -18.70589378	     -0.32647944	     16.82936471	    -11.81736483	      3.21486400	     23.74014556	      0.15861330	     17.61126833	    -11.24137005	     -0.19619892	      7.18390978	      7.71448188	     -0.53866350	     -1.90062015	     -3.00720967	      3.20790299	     -2.40795743	    -10.40146564	      3.59733927	     31.27982436	     89.95437384	      0.00000000	      0.00000000	     -7.64536057	      7.50451063	      8.41596607	     15.55626206	     89.95437384	      0.00000000	      0.00000000
      0.52000000	     -1.85638879	      1.82454812	     -0.83281164	     -0.13331399	      0.91069496	      1.46255622	     -4.44826962	     -0.43427715	     -6.44815461	    -18.95810189	     -0.33088130	     16.88597930	    -11.78642925	      3.16046445	     23.84879182	      0.28783728	     17.86774670	    -11.10938407	     -0.19389533	      7.23185627	      7.72712602	     -0.51508099	     -1.76558890	     -2.87815725	      3.23018844	     -2.43655847	    -10.39955195	      3.63774164	     31.30680644	     89.95437384	      0.00000000	      0.00000000	     -7.72842296	      7.36671827	      8.37972071	     15.58360451	     89.95437384	      0.00000000	      0.00000000
